<?xml version="1.0" encoding="UTF-8"?>
<svg width="155px" height="18px" viewBox="0 0 155 18" version="1.1" xmlns="http://www.w3.org/2000/svg" xmlns:xlink="http://www.w3.org/1999/xlink">
    <!-- Generator: Sketch 62 (91390) - https://sketch.com -->
    <title>GRANDSTANDARD</title>
    <desc>Created with Sketch.</desc>
    <g id="Designs" stroke="none" stroke-width="1" fill="none" fill-rule="evenodd">
        <g id="Stay" transform="translate(-19.000000, -32.000000)" fill="#FFFFFF" fill-rule="nonzero">
            <g id="Logo">
                <path d="M24.28,49.22 C25.0266667,49.22 25.6166667,49.05 26.05,48.71 C26.4833333,48.37 26.8066667,47.9333333 27.02,47.4 L27.02,47.4 L27.24,49 L29.14,49 L29.14,40.78 L24.74,40.78 L24.74,42.64 L26.48,42.64 L26.48,44.16 C26.48,44.7466667 26.43,45.2533333 26.33,45.68 C26.23,46.1066667 26.0533333,46.44 25.8,46.68 C25.5466667,46.92 25.18,47.04 24.7,47.04 C24.2333333,47.04 23.8733333,46.93 23.62,46.71 C23.3666667,46.49 23.1933333,46.1733333 23.1,45.76 C23.0066667,45.3466667 22.96,44.86 22.96,44.3 L22.96,44.3 L22.96,37.52 C22.96,37.0266667 22.99,36.5733333 23.05,36.16 C23.11,35.7466667 23.2566667,35.4133333 23.49,35.16 C23.7233333,34.9066667 24.1,34.78 24.62,34.78 C25.1133333,34.78 25.47,34.8766667 25.69,35.07 C25.91,35.2633333 26.0566667,35.5466667 26.13,35.92 C26.2033333,36.2933333 26.24,36.74 26.24,37.26 L26.24,37.26 L26.24,38.18 L29.06,38.18 L29.06,37.34 C29.06,36.34 28.9166667,35.49 28.63,34.79 C28.3433333,34.09 27.8733333,33.5533333 27.22,33.18 C26.5666667,32.8066667 25.6866667,32.62 24.58,32.62 C23.3933333,32.62 22.4633333,32.8433333 21.79,33.29 C21.1166667,33.7366667 20.6466667,34.38 20.38,35.22 C20.1133333,36.06 19.98,37.06 19.98,38.22 L19.98,38.22 L19.98,43.66 C19.98,44.7933333 20.1166667,45.7766667 20.39,46.61 C20.6633333,47.4433333 21.1133333,48.0866667 21.74,48.54 C22.3666667,48.9933333 23.2133333,49.22 24.28,49.22 Z M35.3651465,49 L35.3651465,41.58 L36.7251465,41.58 L38.6851465,49 L41.6451465,49 L39.3851465,41.02 C39.8918132,40.82 40.2884798,40.5366667 40.5751465,40.17 C40.8618132,39.8033333 41.0651465,39.36 41.1851465,38.84 C41.3051465,38.32 41.3651465,37.7333333 41.3651465,37.08 C41.3651465,36 41.1684798,35.1466667 40.7751465,34.52 C40.3818132,33.8933333 39.8084798,33.45 39.0551465,33.19 C38.3018132,32.93 37.3784798,32.8 36.2851465,32.8 L36.2851465,32.8 L32.4051465,32.8 L32.4051465,49 L35.3651465,49 Z M36.2851465,39.72 L35.3651465,39.72 L35.3651465,34.82 L36.4451465,34.82 C37.2851465,34.82 37.8551465,35.0233333 38.1551465,35.43 C38.4551465,35.8366667 38.6051465,36.4466667 38.6051465,37.26 C38.6051465,37.8333333 38.5318132,38.3033333 38.3851465,38.67 C38.2384798,39.0366667 37.9951465,39.3033333 37.6551465,39.47 C37.3151465,39.6366667 36.8584798,39.72 36.2851465,39.72 L36.2851465,39.72 Z M46.58125,49 L47.24125,45.26 L50.06125,45.26 L50.70125,49 L53.44125,49 L50.20125,32.8 L47.04125,32.8 L43.80125,49 L46.58125,49 Z M49.74125,43.38 L47.54125,43.38 L48.64125,36.58 L49.74125,43.38 Z M58.5102637,49 L58.5102637,39.32 L62.4702637,49 L64.4302637,49 L64.4302637,32.8 L61.9902637,32.8 L61.9902637,42.04 L58.0502637,32.8 L55.9902637,32.8 L55.9902637,49 L58.5102637,49 Z M71.8308984,49 C73.0975651,49 74.0942318,48.81 74.8208984,48.43 C75.5475651,48.05 76.0675651,47.47 76.3808984,46.69 C76.6942318,45.91 76.8508984,44.9333333 76.8508984,43.76 L76.8508984,43.76 L76.8508984,37.84 C76.8508984,36.6933333 76.6942318,35.7466667 76.3808984,35 C76.0675651,34.2533333 75.5408984,33.7 74.8008984,33.34 C74.0608984,32.98 73.0308984,32.8 71.7108984,32.8 L71.7108984,32.8 L67.8908984,32.8 L67.8908984,49 L71.8308984,49 Z M71.7508984,46.94 L70.8508984,46.94 L70.8508984,34.9 L71.7108984,34.9 C72.3642318,34.9 72.8375651,34.9933333 73.1308984,35.18 C73.4242318,35.3666667 73.6175651,35.66 73.7108984,36.06 C73.8042318,36.46 73.8508984,36.9866667 73.8508984,37.64 L73.8508984,37.64 L73.8508984,43.84 C73.8508984,44.5066667 73.8175651,45.07 73.7508984,45.53 C73.6842318,45.99 73.5042318,46.34 73.2108984,46.58 C72.9175651,46.82 72.4308984,46.94 71.7508984,46.94 L71.7508984,46.94 Z M89.9786133,49.22 C90.7919466,49.22 91.5019466,49.05 92.1086133,48.71 C92.7152799,48.37 93.1886133,47.9 93.5286133,47.3 C93.8686133,46.7 94.0386133,46.0133333 94.0386133,45.24 C94.0386133,44.1733333 93.8019466,43.2633333 93.3286133,42.51 C92.8552799,41.7566667 92.2852799,41.1 91.6186133,40.54 L91.6186133,40.54 L89.5986133,38.76 C89.1719466,38.3866667 88.8452799,38.0233333 88.6186133,37.67 C88.3919466,37.3166667 88.2786133,36.8666667 88.2786133,36.32 C88.2786133,35.8933333 88.3952799,35.5366667 88.6286133,35.25 C88.8619466,34.9633333 89.1986133,34.82 89.6386133,34.82 C90.0652799,34.82 90.3886133,34.9333333 90.6086133,35.16 C90.8286133,35.3866667 90.9819466,35.7 91.0686133,36.1 C91.1552799,36.5 91.2119466,36.9533333 91.2386133,37.46 L91.2386133,37.46 L93.7586133,37.02 C93.7186133,36.4333333 93.6252799,35.8766667 93.4786133,35.35 C93.3319466,34.8233333 93.1086133,34.3533333 92.8086133,33.94 C92.5086133,33.5266667 92.1052799,33.2033333 91.5986133,32.97 C91.0919466,32.7366667 90.4586133,32.62 89.6986133,32.62 C88.4052799,32.62 87.3852799,32.9666667 86.6386133,33.66 C85.8919466,34.3533333 85.5186133,35.34 85.5186133,36.62 C85.5186133,37.5133333 85.6886133,38.2633333 86.0286133,38.87 C86.3686133,39.4766667 86.8252799,40.0266667 87.3986133,40.52 L87.3986133,40.52 L89.4386133,42.32 C89.9719466,42.7733333 90.3986133,43.2266667 90.7186133,43.68 C91.0386133,44.1333333 91.1986133,44.7133333 91.1986133,45.42 C91.1986133,45.86 91.0986133,46.2233333 90.8986133,46.51 C90.6986133,46.7966667 90.3586133,46.94 89.8786133,46.94 C89.4519466,46.94 89.1086133,46.81 88.8486133,46.55 C88.5886133,46.29 88.3952799,45.92 88.2686133,45.44 C88.1419466,44.96 88.0652799,44.4066667 88.0386133,43.78 L88.0386133,43.78 L85.4986133,44.28 C85.5386133,45.3466667 85.7252799,46.2466667 86.0586133,46.98 C86.3919466,47.7133333 86.8852799,48.27 87.5386133,48.65 C88.1919466,49.03 89.0052799,49.22 89.9786133,49.22 Z M101.361826,49 L101.361826,34.98 L103.901826,34.98 L103.901826,32.8 L95.8218262,32.8 L95.8218262,34.98 L98.4018262,34.98 L98.4018262,49 L101.361826,49 Z M107.932139,49 L108.592139,45.26 L111.412139,45.26 L112.052139,49 L114.792139,49 L111.552139,32.8 L108.392139,32.8 L105.152139,49 L107.932139,49 Z M111.092139,43.38 L108.892139,43.38 L109.992139,36.58 L111.092139,43.38 Z M119.861152,49 L119.861152,39.32 L123.821152,49 L125.781152,49 L125.781152,32.8 L123.341152,32.8 L123.341152,42.04 L119.401152,32.8 L117.341152,32.8 L117.341152,49 L119.861152,49 Z M133.181787,49 C134.448454,49 135.44512,48.81 136.171787,48.43 C136.898454,48.05 137.418454,47.47 137.731787,46.69 C138.04512,45.91 138.201787,44.9333333 138.201787,43.76 L138.201787,43.76 L138.201787,37.84 C138.201787,36.6933333 138.04512,35.7466667 137.731787,35 C137.418454,34.2533333 136.891787,33.7 136.151787,33.34 C135.411787,32.98 134.381787,32.8 133.061787,32.8 L133.061787,32.8 L129.241787,32.8 L129.241787,49 L133.181787,49 Z M133.101787,46.94 L132.201787,46.94 L132.201787,34.9 L133.061787,34.9 C133.71512,34.9 134.188454,34.9933333 134.481787,35.18 C134.77512,35.3666667 134.968454,35.66 135.061787,36.06 C135.15512,36.46 135.201787,36.9866667 135.201787,37.64 L135.201787,37.64 L135.201787,43.84 C135.201787,44.5066667 135.168454,45.07 135.101787,45.53 C135.03512,45.99 134.85512,46.34 134.561787,46.58 C134.268454,46.82 133.781787,46.94 133.101787,46.94 L133.101787,46.94 Z M143.230801,49 L143.890801,45.26 L146.710801,45.26 L147.350801,49 L150.090801,49 L146.850801,32.8 L143.690801,32.8 L140.450801,49 L143.230801,49 Z M146.390801,43.38 L144.190801,43.38 L145.290801,36.58 L146.390801,43.38 Z M155.599814,49 L155.599814,41.58 L156.959814,41.58 L158.919814,49 L161.879814,49 L159.619814,41.02 C160.126481,40.82 160.523148,40.5366667 160.809814,40.17 C161.096481,39.8033333 161.299814,39.36 161.419814,38.84 C161.539814,38.32 161.599814,37.7333333 161.599814,37.08 C161.599814,36 161.403148,35.1466667 161.009814,34.52 C160.616481,33.8933333 160.043148,33.45 159.289814,33.19 C158.536481,32.93 157.613148,32.8 156.519814,32.8 L156.519814,32.8 L152.639814,32.8 L152.639814,49 L155.599814,49 Z M156.519814,39.72 L155.599814,39.72 L155.599814,34.82 L156.679814,34.82 C157.519814,34.82 158.089814,35.0233333 158.389814,35.43 C158.689814,35.8366667 158.839814,36.4466667 158.839814,37.26 C158.839814,37.8333333 158.766481,38.3033333 158.619814,38.67 C158.473148,39.0366667 158.229814,39.3033333 157.889814,39.47 C157.549814,39.6366667 157.093148,39.72 156.519814,39.72 L156.519814,39.72 Z M168.755918,49 C170.022585,49 171.019251,48.81 171.745918,48.43 C172.472585,48.05 172.992585,47.47 173.305918,46.69 C173.619251,45.91 173.775918,44.9333333 173.775918,43.76 L173.775918,43.76 L173.775918,37.84 C173.775918,36.6933333 173.619251,35.7466667 173.305918,35 C172.992585,34.2533333 172.465918,33.7 171.725918,33.34 C170.985918,32.98 169.955918,32.8 168.635918,32.8 L168.635918,32.8 L164.815918,32.8 L164.815918,49 L168.755918,49 Z M168.675918,46.94 L167.775918,46.94 L167.775918,34.9 L168.635918,34.9 C169.289251,34.9 169.762585,34.9933333 170.055918,35.18 C170.349251,35.3666667 170.542585,35.66 170.635918,36.06 C170.729251,36.46 170.775918,36.9866667 170.775918,37.64 L170.775918,37.64 L170.775918,43.84 C170.775918,44.5066667 170.742585,45.07 170.675918,45.53 C170.609251,45.99 170.429251,46.34 170.135918,46.58 C169.842585,46.82 169.355918,46.94 168.675918,46.94 L168.675918,46.94 Z" id="GRANDSTANDARD"></path>
            </g>
        </g>
    </g>
</svg>